<mxfile host="app.diagrams.net" agent="Mozilla/5.0 (Windows NT 10.0; Win64; x64) AppleWebKit/537.36 (KHTML, like Gecko) Chrome/131.0.0.0 Safari/537.36" version="24.9.3">
  <diagram name="Page-1" id="9c096ad6-e400-ecc8-3e38-643d2caac077">
    <mxGraphModel dx="1793" dy="988" grid="1" gridSize="10" guides="1" tooltips="1" connect="1" arrows="1" fold="1" page="1" pageScale="1.5" pageWidth="1169" pageHeight="826" background="none" math="0" shadow="0">
      <root>
        <mxCell id="0" style=";html=1;" />
        <mxCell id="1" style=";html=1;" parent="0" />
        <mxCell id="X4LghKKrEfY_zfgu4mvH-24" style="edgeStyle=orthogonalEdgeStyle;rounded=0;orthogonalLoop=1;jettySize=auto;html=1;exitX=0;exitY=0.5;exitDx=0;exitDy=0;entryX=0.5;entryY=0;entryDx=0;entryDy=0;" edge="1" parent="1" source="X4LghKKrEfY_zfgu4mvH-1" target="X4LghKKrEfY_zfgu4mvH-3">
          <mxGeometry relative="1" as="geometry" />
        </mxCell>
        <mxCell id="X4LghKKrEfY_zfgu4mvH-25" value="" style="edgeStyle=orthogonalEdgeStyle;rounded=0;orthogonalLoop=1;jettySize=auto;html=1;" edge="1" parent="1" source="X4LghKKrEfY_zfgu4mvH-1" target="X4LghKKrEfY_zfgu4mvH-7">
          <mxGeometry relative="1" as="geometry" />
        </mxCell>
        <mxCell id="X4LghKKrEfY_zfgu4mvH-42" style="edgeStyle=orthogonalEdgeStyle;rounded=0;orthogonalLoop=1;jettySize=auto;html=1;entryX=0.5;entryY=0;entryDx=0;entryDy=0;" edge="1" parent="1" source="X4LghKKrEfY_zfgu4mvH-1" target="X4LghKKrEfY_zfgu4mvH-36">
          <mxGeometry relative="1" as="geometry" />
        </mxCell>
        <mxCell id="X4LghKKrEfY_zfgu4mvH-62" style="edgeStyle=orthogonalEdgeStyle;rounded=0;orthogonalLoop=1;jettySize=auto;html=1;exitX=1;exitY=0.25;exitDx=0;exitDy=0;" edge="1" parent="1" source="X4LghKKrEfY_zfgu4mvH-1" target="X4LghKKrEfY_zfgu4mvH-61">
          <mxGeometry relative="1" as="geometry" />
        </mxCell>
        <mxCell id="X4LghKKrEfY_zfgu4mvH-69" style="edgeStyle=orthogonalEdgeStyle;rounded=0;orthogonalLoop=1;jettySize=auto;html=1;exitX=0;exitY=0.25;exitDx=0;exitDy=0;" edge="1" parent="1" source="X4LghKKrEfY_zfgu4mvH-1" target="X4LghKKrEfY_zfgu4mvH-70">
          <mxGeometry relative="1" as="geometry">
            <mxPoint x="140" y="237.52380952380952" as="targetPoint" />
          </mxGeometry>
        </mxCell>
        <mxCell id="X4LghKKrEfY_zfgu4mvH-71" style="edgeStyle=orthogonalEdgeStyle;rounded=0;orthogonalLoop=1;jettySize=auto;html=1;entryX=0.5;entryY=0;entryDx=0;entryDy=0;" edge="1" parent="1" source="X4LghKKrEfY_zfgu4mvH-1" target="X4LghKKrEfY_zfgu4mvH-67">
          <mxGeometry relative="1" as="geometry" />
        </mxCell>
        <mxCell id="X4LghKKrEfY_zfgu4mvH-73" style="edgeStyle=orthogonalEdgeStyle;rounded=0;orthogonalLoop=1;jettySize=auto;html=1;exitX=1;exitY=0.5;exitDx=0;exitDy=0;" edge="1" parent="1" source="X4LghKKrEfY_zfgu4mvH-1" target="X4LghKKrEfY_zfgu4mvH-74">
          <mxGeometry relative="1" as="geometry">
            <mxPoint x="2120.9523809523807" y="154.66666666666663" as="targetPoint" />
          </mxGeometry>
        </mxCell>
        <mxCell id="X4LghKKrEfY_zfgu4mvH-1" value="CRM-Rental-Car" style="whiteSpace=wrap;html=1;aspect=fixed;" vertex="1" parent="1">
          <mxGeometry x="780" y="120" width="70" height="70" as="geometry" />
        </mxCell>
        <mxCell id="X4LghKKrEfY_zfgu4mvH-14" value="" style="edgeStyle=orthogonalEdgeStyle;rounded=0;orthogonalLoop=1;jettySize=auto;html=1;" edge="1" parent="1" source="X4LghKKrEfY_zfgu4mvH-3" target="X4LghKKrEfY_zfgu4mvH-4">
          <mxGeometry relative="1" as="geometry" />
        </mxCell>
        <mxCell id="X4LghKKrEfY_zfgu4mvH-23" value="" style="edgeStyle=orthogonalEdgeStyle;rounded=0;orthogonalLoop=1;jettySize=auto;html=1;" edge="1" parent="1" source="X4LghKKrEfY_zfgu4mvH-3" target="X4LghKKrEfY_zfgu4mvH-22">
          <mxGeometry relative="1" as="geometry" />
        </mxCell>
        <mxCell id="X4LghKKrEfY_zfgu4mvH-3" value="Home" style="rounded=1;whiteSpace=wrap;html=1;" vertex="1" parent="1">
          <mxGeometry x="390" y="320" width="120" height="60" as="geometry" />
        </mxCell>
        <mxCell id="X4LghKKrEfY_zfgu4mvH-4" value="Overview&amp;nbsp;&lt;div&gt;- Recent Bookings&lt;/div&gt;&lt;div&gt;- Statistika&lt;/div&gt;&lt;div&gt;&lt;br&gt;&lt;/div&gt;" style="ellipse;whiteSpace=wrap;html=1;aspect=fixed;" vertex="1" parent="1">
          <mxGeometry x="390" y="470" width="120" height="120" as="geometry" />
        </mxCell>
        <mxCell id="X4LghKKrEfY_zfgu4mvH-41" style="edgeStyle=orthogonalEdgeStyle;rounded=0;orthogonalLoop=1;jettySize=auto;html=1;exitX=0.5;exitY=1;exitDx=0;exitDy=0;" edge="1" parent="1" source="X4LghKKrEfY_zfgu4mvH-7">
          <mxGeometry relative="1" as="geometry">
            <mxPoint x="815.1379310344828" y="410" as="targetPoint" />
          </mxGeometry>
        </mxCell>
        <mxCell id="X4LghKKrEfY_zfgu4mvH-63" style="edgeStyle=orthogonalEdgeStyle;rounded=0;orthogonalLoop=1;jettySize=auto;html=1;" edge="1" parent="1" source="X4LghKKrEfY_zfgu4mvH-7" target="X4LghKKrEfY_zfgu4mvH-64">
          <mxGeometry relative="1" as="geometry">
            <mxPoint x="649.9999999999998" y="800" as="targetPoint" />
          </mxGeometry>
        </mxCell>
        <mxCell id="X4LghKKrEfY_zfgu4mvH-7" value="Rezervimet" style="rounded=1;whiteSpace=wrap;html=1;" vertex="1" parent="1">
          <mxGeometry x="755" y="320" width="120" height="60" as="geometry" />
        </mxCell>
        <mxCell id="X4LghKKrEfY_zfgu4mvH-19" value="" style="edgeStyle=orthogonalEdgeStyle;rounded=0;orthogonalLoop=1;jettySize=auto;html=1;" edge="1" parent="1" source="X4LghKKrEfY_zfgu4mvH-11" target="X4LghKKrEfY_zfgu4mvH-18">
          <mxGeometry relative="1" as="geometry" />
        </mxCell>
        <mxCell id="X4LghKKrEfY_zfgu4mvH-28" style="edgeStyle=orthogonalEdgeStyle;rounded=0;orthogonalLoop=1;jettySize=auto;html=1;entryX=0.5;entryY=0;entryDx=0;entryDy=0;" edge="1" parent="1" source="X4LghKKrEfY_zfgu4mvH-11" target="X4LghKKrEfY_zfgu4mvH-27">
          <mxGeometry relative="1" as="geometry" />
        </mxCell>
        <mxCell id="X4LghKKrEfY_zfgu4mvH-32" value="" style="edgeStyle=orthogonalEdgeStyle;rounded=0;orthogonalLoop=1;jettySize=auto;html=1;" edge="1" parent="1" source="X4LghKKrEfY_zfgu4mvH-11" target="X4LghKKrEfY_zfgu4mvH-31">
          <mxGeometry relative="1" as="geometry" />
        </mxCell>
        <mxCell id="X4LghKKrEfY_zfgu4mvH-33" style="edgeStyle=orthogonalEdgeStyle;rounded=0;orthogonalLoop=1;jettySize=auto;html=1;exitX=1;exitY=1;exitDx=0;exitDy=0;" edge="1" parent="1" source="X4LghKKrEfY_zfgu4mvH-11" target="X4LghKKrEfY_zfgu4mvH-34">
          <mxGeometry relative="1" as="geometry">
            <mxPoint x="919.9999999999998" y="560" as="targetPoint" />
          </mxGeometry>
        </mxCell>
        <mxCell id="X4LghKKrEfY_zfgu4mvH-35" style="edgeStyle=orthogonalEdgeStyle;rounded=0;orthogonalLoop=1;jettySize=auto;html=1;exitX=0;exitY=0;exitDx=0;exitDy=0;entryX=0;entryY=0;entryDx=0;entryDy=0;" edge="1" parent="1" source="X4LghKKrEfY_zfgu4mvH-11" target="X4LghKKrEfY_zfgu4mvH-11">
          <mxGeometry relative="1" as="geometry">
            <mxPoint x="730" y="430" as="targetPoint" />
          </mxGeometry>
        </mxCell>
        <mxCell id="X4LghKKrEfY_zfgu4mvH-77" style="edgeStyle=orthogonalEdgeStyle;rounded=0;orthogonalLoop=1;jettySize=auto;html=1;exitX=0;exitY=0;exitDx=0;exitDy=0;" edge="1" parent="1" source="X4LghKKrEfY_zfgu4mvH-11" target="X4LghKKrEfY_zfgu4mvH-78">
          <mxGeometry relative="1" as="geometry">
            <mxPoint x="630" y="990" as="targetPoint" />
          </mxGeometry>
        </mxCell>
        <mxCell id="X4LghKKrEfY_zfgu4mvH-11" value="Menaxho Rezervimin" style="rhombus;whiteSpace=wrap;html=1;" vertex="1" parent="1">
          <mxGeometry x="770" y="410" width="90" height="90" as="geometry" />
        </mxCell>
        <mxCell id="X4LghKKrEfY_zfgu4mvH-21" value="" style="edgeStyle=orthogonalEdgeStyle;rounded=0;orthogonalLoop=1;jettySize=auto;html=1;entryX=1;entryY=0.5;entryDx=0;entryDy=0;" edge="1" parent="1" source="X4LghKKrEfY_zfgu4mvH-18" target="X4LghKKrEfY_zfgu4mvH-20">
          <mxGeometry relative="1" as="geometry">
            <Array as="points">
              <mxPoint x="815" y="680" />
            </Array>
          </mxGeometry>
        </mxCell>
        <mxCell id="X4LghKKrEfY_zfgu4mvH-18" value="Butoni Shto Rezervim" style="rhombus;whiteSpace=wrap;html=1;" vertex="1" parent="1">
          <mxGeometry x="775" y="540" width="80" height="80" as="geometry" />
        </mxCell>
        <mxCell id="X4LghKKrEfY_zfgu4mvH-20" value="&lt;span style=&quot;font-size: 8px;&quot;&gt;Hapet pop up&lt;/span&gt;&lt;div&gt;&lt;span style=&quot;font-size: 8px;&quot;&gt;- empty per shto&lt;br&gt;&lt;/span&gt;&lt;/div&gt;&lt;div&gt;&lt;span style=&quot;font-size: 8px;&quot;&gt;- filled per edito&lt;/span&gt;&lt;/div&gt;" style="ellipse;whiteSpace=wrap;html=1;" vertex="1" parent="1">
          <mxGeometry x="720" y="640" width="80" height="80" as="geometry" />
        </mxCell>
        <mxCell id="X4LghKKrEfY_zfgu4mvH-22" value="Quick Actions&lt;div&gt;- Shto Rezervim&lt;/div&gt;" style="rhombus;whiteSpace=wrap;html=1;rounded=1;" vertex="1" parent="1">
          <mxGeometry x="230" y="290" width="121" height="120" as="geometry" />
        </mxCell>
        <mxCell id="X4LghKKrEfY_zfgu4mvH-29" style="edgeStyle=orthogonalEdgeStyle;rounded=0;orthogonalLoop=1;jettySize=auto;html=1;entryX=0;entryY=0.5;entryDx=0;entryDy=0;" edge="1" parent="1" source="X4LghKKrEfY_zfgu4mvH-27" target="X4LghKKrEfY_zfgu4mvH-20">
          <mxGeometry relative="1" as="geometry">
            <mxPoint x="699.9999999999998" y="640" as="targetPoint" />
          </mxGeometry>
        </mxCell>
        <mxCell id="X4LghKKrEfY_zfgu4mvH-27" value="Edito Rezervimin" style="rhombus;whiteSpace=wrap;html=1;" vertex="1" parent="1">
          <mxGeometry x="660" y="540" width="80" height="80" as="geometry" />
        </mxCell>
        <mxCell id="X4LghKKrEfY_zfgu4mvH-31" value="Delete" style="rhombus;whiteSpace=wrap;html=1;" vertex="1" parent="1">
          <mxGeometry x="920" y="415" width="80" height="80" as="geometry" />
        </mxCell>
        <mxCell id="X4LghKKrEfY_zfgu4mvH-34" value="&lt;font&gt;Pdf download&lt;/font&gt;&lt;div&gt;&lt;font&gt;- Selected Reservations&lt;/font&gt;&lt;/div&gt;&lt;div&gt;&lt;font&gt;- All client reservations&lt;/font&gt;&lt;/div&gt;" style="rhombus;whiteSpace=wrap;html=1;" vertex="1" parent="1">
          <mxGeometry x="877" y="550" width="100" height="90" as="geometry" />
        </mxCell>
        <mxCell id="X4LghKKrEfY_zfgu4mvH-43" style="edgeStyle=orthogonalEdgeStyle;rounded=0;orthogonalLoop=1;jettySize=auto;html=1;entryX=0.5;entryY=0;entryDx=0;entryDy=0;" edge="1" parent="1" source="X4LghKKrEfY_zfgu4mvH-36" target="X4LghKKrEfY_zfgu4mvH-39">
          <mxGeometry relative="1" as="geometry" />
        </mxCell>
        <mxCell id="X4LghKKrEfY_zfgu4mvH-36" value="Makinat" style="rounded=1;whiteSpace=wrap;html=1;" vertex="1" parent="1">
          <mxGeometry x="1160" y="320" width="120" height="60" as="geometry" />
        </mxCell>
        <mxCell id="X4LghKKrEfY_zfgu4mvH-45" value="" style="edgeStyle=orthogonalEdgeStyle;rounded=0;orthogonalLoop=1;jettySize=auto;html=1;" edge="1" parent="1" source="X4LghKKrEfY_zfgu4mvH-39" target="X4LghKKrEfY_zfgu4mvH-44">
          <mxGeometry relative="1" as="geometry" />
        </mxCell>
        <mxCell id="X4LghKKrEfY_zfgu4mvH-47" value="" style="edgeStyle=orthogonalEdgeStyle;rounded=0;orthogonalLoop=1;jettySize=auto;html=1;" edge="1" parent="1" source="X4LghKKrEfY_zfgu4mvH-39" target="X4LghKKrEfY_zfgu4mvH-46">
          <mxGeometry relative="1" as="geometry" />
        </mxCell>
        <mxCell id="X4LghKKrEfY_zfgu4mvH-49" value="" style="edgeStyle=orthogonalEdgeStyle;rounded=0;orthogonalLoop=1;jettySize=auto;html=1;" edge="1" parent="1" source="X4LghKKrEfY_zfgu4mvH-39" target="X4LghKKrEfY_zfgu4mvH-48">
          <mxGeometry relative="1" as="geometry" />
        </mxCell>
        <mxCell id="X4LghKKrEfY_zfgu4mvH-39" value="Menaxho Makinat" style="rhombus;whiteSpace=wrap;html=1;" vertex="1" parent="1">
          <mxGeometry x="1180" y="415" width="80" height="80" as="geometry" />
        </mxCell>
        <mxCell id="X4LghKKrEfY_zfgu4mvH-44" value="Delete" style="rhombus;whiteSpace=wrap;html=1;" vertex="1" parent="1">
          <mxGeometry x="1350" y="415" width="80" height="80" as="geometry" />
        </mxCell>
        <mxCell id="X4LghKKrEfY_zfgu4mvH-54" style="edgeStyle=orthogonalEdgeStyle;rounded=0;orthogonalLoop=1;jettySize=auto;html=1;entryX=1;entryY=0.5;entryDx=0;entryDy=0;" edge="1" parent="1" source="X4LghKKrEfY_zfgu4mvH-46" target="X4LghKKrEfY_zfgu4mvH-50">
          <mxGeometry relative="1" as="geometry" />
        </mxCell>
        <mxCell id="X4LghKKrEfY_zfgu4mvH-46" value="Shto Makine" style="rhombus;whiteSpace=wrap;html=1;" vertex="1" parent="1">
          <mxGeometry x="1180" y="550" width="80" height="80" as="geometry" />
        </mxCell>
        <mxCell id="X4LghKKrEfY_zfgu4mvH-53" style="edgeStyle=orthogonalEdgeStyle;rounded=0;orthogonalLoop=1;jettySize=auto;html=1;exitX=0.5;exitY=1;exitDx=0;exitDy=0;entryX=0;entryY=0.5;entryDx=0;entryDy=0;" edge="1" parent="1" source="X4LghKKrEfY_zfgu4mvH-48" target="X4LghKKrEfY_zfgu4mvH-50">
          <mxGeometry relative="1" as="geometry" />
        </mxCell>
        <mxCell id="X4LghKKrEfY_zfgu4mvH-48" value="Edito Makine" style="rhombus;whiteSpace=wrap;html=1;" vertex="1" parent="1">
          <mxGeometry x="1010" y="555" width="80" height="80" as="geometry" />
        </mxCell>
        <mxCell id="X4LghKKrEfY_zfgu4mvH-58" value="" style="edgeStyle=orthogonalEdgeStyle;rounded=0;orthogonalLoop=1;jettySize=auto;html=1;" edge="1" parent="1" source="X4LghKKrEfY_zfgu4mvH-50" target="X4LghKKrEfY_zfgu4mvH-57">
          <mxGeometry relative="1" as="geometry" />
        </mxCell>
        <mxCell id="X4LghKKrEfY_zfgu4mvH-59" style="edgeStyle=orthogonalEdgeStyle;rounded=0;orthogonalLoop=1;jettySize=auto;html=1;exitX=1;exitY=1;exitDx=0;exitDy=0;" edge="1" parent="1" source="X4LghKKrEfY_zfgu4mvH-50" target="X4LghKKrEfY_zfgu4mvH-60">
          <mxGeometry relative="1" as="geometry">
            <mxPoint x="1280" y="750" as="targetPoint" />
          </mxGeometry>
        </mxCell>
        <mxCell id="X4LghKKrEfY_zfgu4mvH-50" value="Hapet pop up&lt;div&gt;- empty per shto&lt;/div&gt;&lt;div&gt;- filled per edito&lt;/div&gt;" style="ellipse;whiteSpace=wrap;html=1;" vertex="1" parent="1">
          <mxGeometry x="1090" y="630" width="90" height="100" as="geometry" />
        </mxCell>
        <mxCell id="X4LghKKrEfY_zfgu4mvH-57" value="&lt;div&gt;Posto Produktin ne rrjete sociale&lt;/div&gt;" style="shape=parallelogram;perimeter=parallelogramPerimeter;whiteSpace=wrap;html=1;fixedSize=1;" vertex="1" parent="1">
          <mxGeometry x="1072.5" y="770" width="125" height="60" as="geometry" />
        </mxCell>
        <mxCell id="X4LghKKrEfY_zfgu4mvH-60" value="?????&lt;div&gt;Posto ke faqja jone&lt;/div&gt;" style="shape=parallelogram;perimeter=parallelogramPerimeter;whiteSpace=wrap;html=1;fixedSize=1;" vertex="1" parent="1">
          <mxGeometry x="1240" y="770" width="120" height="60" as="geometry" />
        </mxCell>
        <mxCell id="X4LghKKrEfY_zfgu4mvH-61" value="Kalendari" style="rounded=1;whiteSpace=wrap;html=1;" vertex="1" parent="1">
          <mxGeometry x="1570" y="320" width="120" height="60" as="geometry" />
        </mxCell>
        <mxCell id="X4LghKKrEfY_zfgu4mvH-64" value="Raporti I rezevimeve" style="rhombus;whiteSpace=wrap;html=1;" vertex="1" parent="1">
          <mxGeometry x="529.9999999999998" y="760" width="80" height="80" as="geometry" />
        </mxCell>
        <mxCell id="X4LghKKrEfY_zfgu4mvH-67" value="Profili" style="rounded=1;whiteSpace=wrap;html=1;" vertex="1" parent="1">
          <mxGeometry x="1850" y="319.9999999999999" width="120" height="60" as="geometry" />
        </mxCell>
        <mxCell id="X4LghKKrEfY_zfgu4mvH-76" value="" style="edgeStyle=orthogonalEdgeStyle;rounded=0;orthogonalLoop=1;jettySize=auto;html=1;" edge="1" parent="1" source="X4LghKKrEfY_zfgu4mvH-70" target="X4LghKKrEfY_zfgu4mvH-75">
          <mxGeometry relative="1" as="geometry" />
        </mxCell>
        <mxCell id="X4LghKKrEfY_zfgu4mvH-70" value="Klientet" style="rounded=1;whiteSpace=wrap;html=1;" vertex="1" parent="1">
          <mxGeometry x="40" y="310.00380952380954" width="120" height="60" as="geometry" />
        </mxCell>
        <mxCell id="X4LghKKrEfY_zfgu4mvH-74" value="Settings (te aplikacionit)" style="rounded=1;whiteSpace=wrap;html=1;" vertex="1" parent="1">
          <mxGeometry x="2070.002380952381" y="319.99666666666667" width="120" height="60" as="geometry" />
        </mxCell>
        <mxCell id="X4LghKKrEfY_zfgu4mvH-75" value="Menaxho Kilentet" style="rhombus;whiteSpace=wrap;html=1;rounded=1;" vertex="1" parent="1">
          <mxGeometry x="60" y="440.00380952380954" width="80" height="80" as="geometry" />
        </mxCell>
        <mxCell id="X4LghKKrEfY_zfgu4mvH-78" value="????&lt;div&gt;Fiskalizimi&lt;/div&gt;" style="rhombus;whiteSpace=wrap;html=1;" vertex="1" parent="1">
          <mxGeometry x="590" y="950" width="80" height="80" as="geometry" />
        </mxCell>
      </root>
    </mxGraphModel>
  </diagram>
</mxfile>
